# Blender v3.0.0 OBJ File: 'cube.blend'
# www.blender.org
mtllib cube.mtl
o Cube
v 1.000000 1.000000 -1.000000
v 1.000000 -1.000000 -1.000000
v 1.000000 1.000000 1.000000
v 1.000000 -1.000000 1.000000
v -1.000000 1.000000 -1.000000
v -1.000000 -1.000000 -1.000000
v -1.000000 1.000000 1.000000
v -1.000000 -1.000000 1.000000
vt 0.086265 0.357590
vt 0.114718 0.329137
vt 0.086265 0.329137
vt 0.010163 0.183082
vt 0.036935 0.156310
vt 0.010163 0.156310
vt 0.407109 0.297652
vt 0.381391 0.323370
vt 0.407109 0.323370
vt 0.300576 0.768768
vt 0.332158 0.737186
vt 0.300576 0.737186
vt 0.186878 0.296518
vt 0.145789 0.337607
vt 0.186878 0.337607
vt 0.221147 0.559034
vt 0.261958 0.518224
vt 0.221147 0.518224
vt 0.114718 0.357590
vt 0.036935 0.183082
vt 0.381391 0.297652
vt 0.332158 0.768768
vt 0.145789 0.296518
vt 0.261958 0.559034
vn 0.0000 -1.0000 0.0000
vn 0.0000 0.0000 -1.0000
vn 1.0000 0.0000 0.0000
vn 0.0000 1.0000 0.0000
vn -1.0000 0.0000 0.0000
vn 0.0000 0.0000 1.0000
usemtl cube
s off
f 3/1/1 5/2/1 1/3/1
f 8/4/2 3/5/2 4/6/2
f 6/7/3 7/8/3 8/9/3
f 8/10/4 2/11/4 6/12/4
f 4/13/5 1/14/5 2/15/5
f 2/16/6 5/17/6 6/18/6
f 3/1/1 7/19/1 5/2/1
f 8/4/2 7/20/2 3/5/2
f 6/7/3 5/21/3 7/8/3
f 8/10/4 4/22/4 2/11/4
f 4/13/5 3/23/5 1/14/5
f 2/16/6 1/24/6 5/17/6
